<?xml version="1.0" standalone="no"?>
<!DOCTYPE svg PUBLIC "-//W3C//DTD SVG 20010904//EN"
 "http://www.w3.org/TR/2001/REC-SVG-20010904/DTD/svg10.dtd">
<svg version="1.0" xmlns="http://www.w3.org/2000/svg"
 width="776.000000pt" height="776.000000pt" viewBox="0 0 776.000000 776.000000"
 preserveAspectRatio="xMidYMid meet">
<metadata>
Created by potrace 1.11, written by Peter Selinger 2001-2013
</metadata>
<g transform="translate(0.000000,776.000000) scale(0.100000,-0.100000)"
fill="#000000" stroke="none">
<path d="M4355 7535 c-88 -19 -215 -70 -268 -108 -60 -43 -107 -98 -142 -167
-42 -81 -47 -197 -12 -300 14 -41 23 -78 20 -82 -2 -5 -34 -8 -71 -8 -163 0
-526 -52 -712 -101 -183 -48 -303 -114 -510 -279 -348 -278 -647 -678 -759
-1015 -58 -177 -66 -236 -65 -510 0 -215 3 -264 21 -347 26 -121 66 -210 111
-249 28 -24 32 -33 21 -40 -19 -12 -36 -11 -45 2 -3 6 -30 22 -58 35 -104 49
-268 24 -425 -63 -119 -66 -195 -162 -143 -180 9 -3 32 -12 51 -20 l34 -13
-53 -53 c-65 -65 -110 -129 -110 -157 0 -28 38 -64 83 -81 l37 -13 -27 -22
-28 -22 25 -27 c39 -42 169 -101 252 -115 94 -16 207 -2 312 38 l75 30 5 -42
c2 -22 12 -114 21 -203 19 -194 61 -407 110 -563 36 -114 127 -313 163 -359
l19 -24 18 54 c10 30 26 71 37 92 l19 38 49 -68 c27 -37 58 -79 69 -93 l20
-25 9 26 c6 14 16 44 23 67 7 23 15 42 19 42 4 0 14 -15 21 -32 l14 -33 6 65
c4 36 16 238 28 450 13 212 25 408 27 436 l5 51 87 -44 c105 -52 207 -79 361
-95 64 -6 117 -12 119 -13 3 -2 -281 -648 -418 -950 -39 -88 -117 -251 -172
-363 -54 -112 -106 -221 -114 -244 -17 -50 -18 -109 -1 -130 15 -20 183 -117
262 -152 46 -20 65 -36 82 -66 56 -97 206 -224 313 -266 80 -30 75 -8 71 -352
-3 -335 5 -432 44 -519 32 -72 58 -83 189 -83 l105 0 -12 32 c-23 63 -9 677
19 806 l4 22 253 -2 252 -3 27 -82 c41 -121 57 -250 66 -521 9 -291 6 -284
125 -290 l73 -4 32 36 c56 64 67 123 66 361 0 143 -6 240 -17 305 -29 176 -48
302 -45 305 2 1 59 33 128 70 68 36 135 75 150 84 14 10 37 21 53 25 21 5 27
12 27 34 0 56 12 71 87 118 95 59 182 144 212 207 38 79 28 129 -53 262 -83
136 -236 446 -306 619 -66 165 -150 399 -150 420 0 9 11 18 28 21 121 26 150
37 209 82 57 42 58 54 9 121 -25 33 -81 103 -125 155 l-81 96 57 16 c71 21
163 67 227 113 l49 36 -7 -319 c-4 -176 -13 -432 -20 -570 -7 -137 -12 -251
-11 -253 2 -2 23 11 48 29 25 17 49 29 55 25 5 -3 13 -42 16 -86 4 -44 11 -80
15 -80 5 0 48 37 96 82 l88 83 -5 -63 c-6 -65 1 -71 32 -28 145 200 233 561
275 1129 7 84 8 87 28 81 36 -12 123 -7 183 11 l57 17 41 -49 c92 -108 248
-273 260 -273 16 0 108 97 136 144 l24 39 30 -61 c17 -34 36 -62 42 -62 24 0
104 92 133 154 17 34 35 94 41 134 13 84 0 150 -53 265 -122 261 -323 347
-568 243 -13 -6 -22 4 -39 38 -20 42 -55 79 -82 88 -7 3 -4 22 9 58 61 161 81
403 43 500 -11 28 -20 65 -20 83 0 58 -38 294 -65 397 -33 131 -69 216 -154
359 -276 465 -706 812 -1201 969 -102 32 -192 56 -253 67 -37 6 -38 7 -32 38
24 115 133 261 239 320 98 54 276 107 362 107 54 0 58 18 15 77 -59 81 -169
144 -249 142 -20 0 -64 -6 -97 -14z m-455 -959 c0 -3 -4 -8 -10 -11 -5 -3 -10
-1 -10 4 0 6 5 11 10 11 6 0 10 -2 10 -4z m-409 -23 c13 -16 12 -17 -3 -4 -10
7 -18 15 -18 17 0 8 8 3 21 -13z m229 -23 c0 -5 -4 -10 -10 -10 -5 0 -10 5
-10 10 0 6 5 10 10 10 6 0 10 -4 10 -10z m-300 -20 c0 -5 -5 -10 -11 -10 -5 0
-7 5 -4 10 3 6 8 10 11 10 2 0 4 -4 4 -10z m355 0 c3 -5 1 -10 -4 -10 -6 0
-11 5 -11 10 0 6 2 10 4 10 3 0 8 -4 11 -10z m-520 -40 c3 -5 1 -10 -4 -10 -6
0 -11 5 -11 10 0 6 2 10 4 10 3 0 8 -4 11 -10z m165 -54 c0 -3 -4 -8 -10 -11
-5 -3 -10 -1 -10 4 0 6 5 11 10 11 6 0 10 -2 10 -4z m100 -6 c0 -5 -2 -10 -4
-10 -3 0 -8 5 -11 10 -3 6 -1 10 4 10 6 0 11 -4 11 -10z m-300 -14 c0 -3 -4
-8 -10 -11 -5 -3 -10 -1 -10 4 0 6 5 11 10 11 6 0 10 -2 10 -4z m395 -6 c3 -5
1 -10 -4 -10 -6 0 -11 5 -11 10 0 6 2 10 4 10 3 0 8 -4 11 -10z m-320 -40 c3
-5 1 -10 -4 -10 -6 0 -11 5 -11 10 0 6 2 10 4 10 3 0 8 -4 11 -10z m145 -14
c0 -3 -4 -8 -10 -11 -5 -3 -10 -1 -10 4 0 6 5 11 10 11 6 0 10 -2 10 -4z
m-325 -46 c3 -5 1 -10 -4 -10 -6 0 -11 5 -11 10 0 6 2 10 4 10 3 0 8 -4 11
-10z m-55 -20 c0 -5 -4 -10 -10 -10 -5 0 -10 5 -10 10 0 6 5 10 10 10 6 0 10
-4 10 -10z m335 -40 c3 -5 1 -10 -4 -10 -6 0 -11 5 -11 10 0 6 2 10 4 10 3 0
8 -4 11 -10z m-795 -20 c-8 -5 -17 -7 -19 -4 -3 3 1 9 9 14 8 5 17 7 19 4 3
-3 -1 -9 -9 -14z m880 6 c0 -3 -4 -8 -10 -11 -5 -3 -10 -1 -10 4 0 6 5 11 10
11 6 0 10 -2 10 -4z m-945 -26 c3 -5 1 -10 -4 -10 -6 0 -11 5 -11 10 0 6 2 10
4 10 3 0 8 -4 11 -10z m23 -47 c-48 -73 -57 -90 -54 -109 6 -37 -14 -70 -47
-80 -20 -5 -37 -20 -46 -37 -9 -21 -16 -26 -24 -18 -15 15 11 61 35 61 10 0
18 4 18 9 0 5 10 11 23 13 18 2 22 9 22 38 0 20 8 48 18 63 9 14 17 31 17 37
0 13 53 70 59 64 2 -2 -7 -21 -21 -41z m-64 -18 c-4 -8 -8 -15 -10 -15 -2 0
-4 7 -4 15 0 8 4 15 10 15 5 0 7 -7 4 -15z m-14 -35 c0 -5 -5 -10 -11 -10 -5
0 -7 5 -4 10 3 6 8 10 11 10 2 0 4 -4 4 -10z m-45 -20 c-3 -5 0 -10 8 -10 8 0
17 -7 21 -15 7 -20 -3 -19 -26 2 -20 18 -24 33 -7 33 5 0 7 -4 4 -10z m660 0
c3 -5 1 -10 -4 -10 -6 0 -11 5 -11 10 0 6 2 10 4 10 3 0 8 -4 11 -10z m205
-14 c0 -3 -4 -8 -10 -11 -5 -3 -10 -1 -10 4 0 6 5 11 10 11 6 0 10 -2 10 -4z
m-854 -30 c19 -19 18 -32 -1 -16 -13 11 -20 7 -46 -19 -17 -18 -33 -30 -36
-28 -4 5 55 74 65 76 2 1 10 -5 18 -13z m689 -36 c3 -5 1 -10 -4 -10 -6 0 -11
5 -11 10 0 6 2 10 4 10 3 0 8 -4 11 -10z m-795 -34 c0 -3 -4 -8 -10 -11 -5 -3
-10 -1 -10 4 0 6 5 11 10 11 6 0 10 -2 10 -4z m955 -6 c3 -5 1 -10 -4 -10 -6
0 -11 5 -11 10 0 6 2 10 4 10 3 0 8 -4 11 -10z m-811 -26 c5 -12 2 -15 -10
-10 -11 4 -15 2 -11 -8 4 -10 1 -13 -9 -9 -7 3 -14 0 -14 -6 0 -6 5 -11 10
-11 6 0 10 -5 10 -11 0 -8 -6 -7 -17 2 -9 8 -18 10 -20 4 -12 -34 -21 -39 -50
-27 -26 11 -27 11 -9 -3 11 -8 26 -15 33 -15 7 0 10 -6 7 -15 -4 -10 0 -15 11
-15 12 0 15 5 10 20 -4 13 -2 20 8 20 9 0 12 -9 9 -30 -2 -16 -8 -30 -13 -30
-5 0 -9 -5 -9 -11 0 -5 4 -8 9 -4 5 3 17 -2 25 -11 14 -14 18 -14 31 0 8 8 15
22 15 30 0 9 4 16 8 16 18 0 8 -36 -15 -57 -26 -25 -43 -29 -43 -12 0 5 -4 8
-9 4 -5 -3 -13 -1 -16 5 -5 8 -11 7 -21 -1 -11 -9 -15 -8 -20 5 -3 9 -10 14
-14 11 -15 -10 -18 23 -4 44 9 12 11 21 5 21 -6 0 -11 -4 -11 -10 0 -13 -62
22 -68 38 -2 7 3 12 12 12 9 0 16 -4 16 -10 0 -5 4 -10 10 -10 5 0 9 16 7 37
-1 22 3 38 11 40 8 3 12 -5 12 -23 0 -21 3 -25 11 -17 6 6 17 9 25 6 7 -3 28
9 46 26 18 17 34 31 34 31 1 0 5 -7 8 -16z m-164 -14 c0 -5 -4 -10 -10 -10 -5
0 -10 5 -10 10 0 6 5 10 10 10 6 0 10 -4 10 -10z m960 6 c0 -2 -8 -10 -17 -17
-16 -13 -17 -12 -4 4 13 16 21 21 21 13z m-1000 -40 c0 -3 -4 -8 -10 -11 -5
-3 -10 -1 -10 4 0 6 5 11 10 11 6 0 10 -2 10 -4z m672 -18 c-19 -20 -24 -21
-32 -8 -7 12 -12 12 -22 2 -14 -14 -38 -16 -38 -2 0 6 9 10 20 10 11 0 20 5
20 10 0 6 17 10 37 10 l37 0 -22 -22z m95 9 c3 -3 2 -14 -2 -24 -4 -10 -7 -28
-6 -40 3 -26 -14 -31 -23 -7 -4 10 -2 13 6 8 8 -5 9 -2 5 10 -4 10 -7 24 -7
32 0 8 -7 14 -16 14 -13 0 -14 -3 -5 -14 15 -18 -7 -28 -25 -12 -9 8 -9 15 3
28 13 15 56 18 70 5z m-207 -13 c0 -8 -4 -12 -10 -9 -5 3 -10 10 -10 16 0 5 5
9 10 9 6 0 10 -7 10 -16z m240 -25 c0 -16 -4 -38 -10 -49 -5 -11 -14 -29 -20
-40 -12 -24 -13 -50 -2 -50 4 0 9 10 9 22 1 13 7 24 13 26 5 2 10 12 10 23 0
10 4 19 9 19 5 0 7 -19 3 -42 l-5 -42 23 22 c30 28 50 28 50 1 0 -11 4 -17 10
-14 6 4 8 15 5 26 -5 14 2 24 26 38 17 11 38 17 45 14 8 -3 14 1 14 9 0 8 10
23 22 34 19 16 20 16 9 1 -8 -9 -11 -21 -7 -24 4 -4 11 -2 15 5 5 9 14 5 32
-15 13 -14 17 -22 9 -18 -10 5 -8 1 4 -13 11 -12 14 -22 8 -22 -7 0 -12 -8
-12 -18 0 -9 -9 -23 -20 -30 -24 -14 -27 -4 -4 12 11 8 13 20 9 39 -4 15 -11
25 -15 22 -5 -3 -10 1 -13 7 -2 7 -8 9 -13 5 -4 -4 -3 -17 4 -27 14 -23 16
-50 3 -50 -5 0 -14 14 -21 30 -7 17 -16 30 -21 30 -14 0 -49 -33 -49 -47 0 -7
-5 -13 -11 -13 -5 0 -7 -5 -3 -12 5 -8 11 -5 17 10 11 25 29 33 47 22 18 -11
3 -31 -17 -23 -12 5 -15 2 -10 -10 3 -9 2 -17 -2 -17 -5 0 -7 -9 -4 -20 6 -24
23 -16 23 11 0 34 24 15 24 -18 1 -17 4 -35 9 -39 4 -4 7 -20 7 -36 0 -15 5
-28 10 -28 15 0 12 57 -4 63 -9 4 -12 15 -9 31 3 14 0 33 -7 41 -17 20 -5 31
15 15 9 -8 14 -22 12 -32 -3 -10 -1 -18 5 -18 6 0 7 -8 4 -17 -4 -9 -2 -19 3
-22 5 -4 11 -20 14 -36 2 -17 10 -30 18 -30 17 0 17 -10 0 -50 -10 -23 -14
-26 -21 -15 -7 10 -5 19 7 27 9 7 14 16 10 19 -4 4 -15 1 -24 -7 -16 -13 -17
-12 -4 4 25 32 3 29 -28 -3 -19 -20 -36 -30 -46 -26 -8 3 -15 1 -15 -4 0 -19
19 -19 44 1 15 12 30 18 34 15 3 -4 0 -11 -8 -16 -13 -8 -11 -12 8 -25 12 -9
22 -21 22 -27 0 -6 -11 -1 -24 12 -31 28 -46 17 -66 -52 -8 -26 -16 -45 -19
-42 -8 8 -8 45 1 50 16 10 8 51 -14 70 -13 12 -18 13 -12 4 13 -23 16 -60 4
-60 -5 0 -18 9 -27 19 -9 11 -22 17 -29 14 -18 -7 -8 -45 16 -62 11 -7 20 -18
20 -24 0 -5 -8 -3 -18 6 -10 10 -22 14 -26 10 -4 -5 -6 -1 -4 7 2 8 -3 14 -9
13 -8 -2 -13 7 -13 22 0 23 -2 24 -20 13 -12 -8 -16 -16 -10 -22 11 -11 -6
-46 -22 -46 -7 0 -21 -9 -32 -19 -25 -24 -86 -37 -86 -19 0 7 -5 5 -12 -4 -12
-16 -41 -21 -100 -19 -21 1 -26 5 -21 17 3 9 0 20 -8 24 -7 5 -10 13 -5 17 5
4 11 2 13 -4 7 -20 23 -15 23 7 0 13 -7 20 -20 20 -11 0 -20 5 -20 10 0 10 15
14 34 11 5 -1 3 5 -4 14 -11 13 -11 18 -1 25 9 5 10 10 2 14 -10 7 -13 3 -15
-26 -1 -16 -16 -28 -34 -28 -10 0 -9 5 2 22 19 26 20 38 5 38 -5 0 -7 -4 -4
-10 3 -5 -1 -10 -10 -10 -12 0 -15 5 -11 16 3 9 6 20 6 25 0 6 9 5 23 -1 21
-11 21 -10 3 4 -10 8 -24 17 -30 19 -7 3 -6 10 4 21 19 24 21 43 4 57 -8 6
-14 21 -14 32 0 20 0 20 21 -2 17 -18 23 -20 30 -10 5 9 2 16 -11 21 -28 10
-26 38 3 38 l22 0 -25 21 c-14 11 -19 18 -12 14 6 -3 12 -2 12 3 0 5 13 8 28
7 15 -1 34 5 41 13 12 12 11 13 -8 7 -12 -4 -21 -2 -21 4 0 6 5 11 10 11 6 0
10 5 10 10 0 6 -9 10 -20 10 -11 0 -20 5 -20 11 0 6 7 8 16 5 22 -8 50 14 32
25 -7 4 -9 11 -5 15 4 4 15 0 25 -10 12 -14 14 -20 5 -23 -15 -5 -18 -43 -3
-43 5 0 6 7 3 17 -4 11 -3 14 5 9 7 -4 15 0 19 10 4 10 2 19 -5 22 -19 6 -14
22 7 22 12 0 21 -8 24 -22 3 -22 4 -21 17 7 13 29 14 29 18 7 2 -13 -4 -34
-12 -48 -9 -13 -12 -24 -6 -24 6 0 15 11 20 24 9 26 28 42 37 32 3 -3 0 -13
-7 -21 -11 -13 -11 -18 0 -28 7 -7 10 -7 7 -2 -3 6 -1 17 4 25 8 13 10 13 18
1 8 -12 12 -12 26 3 9 9 14 23 11 32 -3 8 -2 12 4 9 6 -4 7 6 3 26 -4 23 -3
30 5 25 7 -4 12 -20 12 -37z m-272 19 c15 -15 16 -48 1 -48 -6 0 -9 9 -6 20 4
15 0 20 -15 20 -10 0 -16 5 -13 10 8 13 18 13 33 -2z m532 -13 c0 -8 -4 -15
-10 -15 -5 0 -10 7 -10 15 0 8 5 15 10 15 6 0 10 -7 10 -15z m-1032 -50 c-1
-20 -5 -38 -10 -41 -4 -3 -3 -14 2 -25 6 -10 8 -19 5 -19 -4 0 -3 -5 0 -10 4
-6 12 -5 21 4 16 17 19 30 4 21 -15 -9 -20 15 -12 53 9 40 27 38 27 -3 0 -17
10 -43 23 -59 16 -21 19 -32 12 -42 -8 -8 -8 -14 -1 -19 14 -8 8 -69 -9 -90
-7 -9 -9 -15 -4 -14 26 5 33 -3 30 -33 -2 -18 -1 -23 1 -10 5 28 23 29 23 1 0
-11 4 -18 8 -15 14 8 35 -11 27 -25 -7 -10 -10 -8 -15 5 -6 17 -8 17 -34 -7
-16 -15 -23 -28 -16 -32 5 -3 10 -2 10 2 0 5 9 9 20 10 11 1 20 -2 20 -6 0
-16 -27 -31 -44 -25 -15 6 -21 -5 -17 -30 1 -5 -5 -16 -14 -26 -18 -20 -6 -34
20 -24 10 4 15 14 12 25 -3 10 1 20 8 23 8 3 12 -5 11 -24 0 -16 -3 -28 -6
-28 -19 1 -30 -3 -26 -10 5 -9 -7 -12 -61 -13 -18 -1 -33 -5 -33 -9 0 -5 -6
-15 -13 -22 -16 -17 -37 -65 -37 -85 0 -9 -8 -21 -17 -28 -9 -7 -18 -26 -19
-41 -3 -49 -4 -54 -11 -54 -5 0 -9 33 -10 73 -3 70 10 127 28 127 12 0 12 -37
0 -44 -13 -8 -10 -57 3 -53 6 2 11 12 11 23 -1 10 3 22 8 25 4 3 9 16 10 27 1
12 5 22 9 22 4 0 8 17 8 37 0 29 3 34 12 25 17 -17 25 -15 33 11 6 22 7 21 21
-22 3 -11 8 -11 16 -3 8 8 8 15 -2 26 -10 13 -10 17 3 22 21 8 28 41 10 49
-11 4 -14 0 -10 -14 4 -16 -4 -25 -34 -40 -36 -19 -59 -15 -44 9 3 6 -1 7 -10
4 -12 -5 -13 -9 -4 -20 9 -11 9 -14 0 -14 -8 0 -10 -11 -7 -30 5 -32 -9 -49
-26 -32 -13 13 -38 -9 -38 -32 0 -9 -4 -16 -10 -16 -5 0 -10 6 -10 14 0 20
-25 37 -44 30 -10 -4 -15 -12 -12 -20 3 -7 -2 -18 -9 -24 -8 -7 -13 -16 -12
-22 1 -5 -8 -14 -20 -19 -17 -6 -23 -5 -23 5 0 8 -3 16 -7 19 -5 2 -2 2 5 0 8
-1 20 3 28 11 18 18 18 27 1 20 -7 -2 -22 5 -33 17 -18 21 -19 22 0 33 10 6
26 18 35 26 9 8 11 11 4 6 -9 -6 -18 -5 -26 3 -15 15 7 31 35 26 10 -2 16 0
13 6 -4 5 -10 7 -14 5 -4 -3 -13 -1 -19 3 -10 6 -10 10 1 20 12 9 18 8 31 -4
9 -9 16 -13 16 -8 0 16 -40 43 -55 37 -8 -4 -15 -1 -15 7 0 7 3 9 7 6 9 -10
43 44 36 57 -3 6 -3 8 2 4 4 -4 16 -3 25 2 15 8 17 6 13 -10 -3 -11 -9 -18
-13 -15 -5 3 -7 -3 -5 -12 1 -10 -2 -24 -8 -30 -6 -9 -6 -13 2 -13 10 0 15 13
12 33 0 4 4 7 9 7 6 0 10 6 10 14 0 8 5 16 11 18 10 3 -23 50 -35 49 -20 -3
-28 0 -22 6 4 4 14 8 22 8 7 0 14 3 14 8 0 4 6 20 15 36 8 17 12 36 10 44 -8
19 45 43 56 25 5 -7 6 5 2 27 -6 38 -6 39 13 25 18 -14 18 -14 5 2 -11 15 -11
22 5 44 11 15 24 35 30 45 8 15 13 16 23 6 10 -9 11 -8 6 6 -5 12 -2 17 9 17
11 0 15 -9 14 -35z m468 23 c-5 -24 -18 -48 -26 -48 -5 0 -3 14 3 30 11 29 28
42 23 18z m876 0 c-7 -7 -12 -27 -12 -44 0 -18 -4 -35 -8 -38 -10 -6 -8 52 3
77 4 9 12 17 18 17 7 0 7 -4 -1 -12z m-1172 -12 c0 -3 -4 -8 -10 -11 -5 -3
-10 -1 -10 4 0 6 5 11 10 11 6 0 10 -2 10 -4z m1115 -6 c3 -5 1 -10 -4 -10 -6
0 -11 5 -11 10 0 6 2 10 4 10 3 0 8 -4 11 -10z m91 -7 c-4 -9 -1 -20 6 -24 7
-4 9 -11 6 -15 -13 -13 -36 21 -26 39 12 22 22 22 14 0z m550 -235 c-8 -268
-8 -275 -26 -436 -18 -155 -5 -172 171 -226 48 -15 127 -50 175 -78 90 -52
107 -56 179 -43 35 5 47 2 91 -27 61 -39 127 -115 117 -131 -5 -7 -8 -133 -9
-282 0 -148 -1 -322 -2 -386 l-2 -115 -102 -53 c-199 -103 -368 -161 -598
-206 -179 -35 -326 -46 -680 -52 l-305 -5 -190 32 c-242 40 -370 76 -520 149
-154 74 -247 156 -284 249 -33 84 -26 136 31 249 25 48 49 104 53 123 12 56 6
136 -14 197 -10 31 -17 61 -15 67 2 6 23 23 47 38 23 15 67 52 97 83 38 38 72
62 109 76 l54 20 21 -22 c15 -15 17 -23 8 -26 -27 -10 -71 -55 -97 -98 -68
-116 -72 -246 -12 -361 20 -38 83 -97 127 -120 65 -34 280 -20 280 18 0 5 4 7
9 4 14 -9 70 42 91 84 31 62 43 157 30 243 -6 41 -8 86 -5 100 8 31 -6 60 -52
108 -31 33 -33 38 -17 42 22 6 139 15 299 22 61 3 146 7 190 10 44 3 125 8
180 10 110 5 124 13 126 69 2 80 24 109 34 44 4 -24 15 -54 24 -67 16 -21 25
-23 87 -22 111 3 137 11 139 46 17 217 85 716 107 775 11 30 27 76 36 103 9
26 18 47 21 47 2 0 1 -114 -3 -252z m-630 200 c4 -7 3 -10 -1 -5 -10 9 -45
-21 -45 -39 0 -7 -4 -16 -10 -19 -6 -4 -6 4 1 22 19 49 41 66 55 41z m-1208
-32 c21 -18 22 -19 16 -2 -6 16 -4 17 13 8 20 -11 26 -54 10 -79 -5 -8 0 -10
18 -7 30 5 30 -12 0 -37 -23 -19 -29 -70 -8 -62 7 3 13 -2 13 -12 0 -14 -5
-14 -40 6 -38 21 -47 45 -12 32 15 -6 15 -5 3 10 -8 10 -15 36 -16 60 -2 54
-12 84 -30 91 -8 3 -15 10 -15 16 0 13 16 5 48 -24z m1337 25 c3 -5 1 -12 -5
-16 -5 -3 -10 1 -10 9 0 18 6 21 15 7z m-935 -11 c0 -5 -4 -10 -10 -10 -5 0
-10 5 -10 10 0 6 5 10 10 10 6 0 10 -4 10 -10z m1067 -5 c8 -9 13 -19 10 -22
-6 -5 -37 21 -37 31 0 10 11 6 27 -9z m-187 -26 c0 -21 -16 -26 -23 -6 -6 17
3 38 14 31 5 -3 9 -14 9 -25z m-80 0 c0 -17 -28 -40 -35 -29 -3 5 -1 10 4 10
6 0 11 9 11 21 0 11 5 17 10 14 6 -3 10 -11 10 -16z m115 -22 c-5 -18 -12 -24
-23 -20 -15 4 -15 3 -2 -6 8 -6 10 -11 4 -11 -7 0 -14 -7 -17 -14 -4 -10 -1
-13 7 -10 8 3 15 -4 18 -20 3 -14 1 -26 -4 -26 -5 0 -24 -11 -42 -25 -39 -30
-56 -32 -56 -6 0 20 22 33 43 26 6 -3 17 3 24 13 9 15 8 19 -5 19 -10 0 -20
-5 -24 -11 -6 -8 -11 -6 -17 4 -6 9 -6 19 1 27 19 23 3 32 -21 12 -20 -17 -22
-22 -11 -29 8 -5 12 -12 8 -15 -7 -8 -68 53 -68 68 0 6 8 1 18 -10 l17 -21 28
24 c15 12 27 30 27 39 0 8 7 15 15 15 8 0 15 -7 15 -15 0 -8 -5 -15 -12 -15
-9 0 -9 -3 -1 -11 6 -6 9 -18 6 -27 -4 -10 -2 -13 5 -8 7 4 12 14 12 22 0 14
51 66 58 59 2 -1 0 -14 -3 -28z m129 8 c9 -14 12 -25 7 -25 -5 0 -12 7 -15 16
-3 8 -10 13 -14 10 -5 -3 -9 1 -9 9 0 22 13 18 31 -10z m-489 -22 c-8 -7 -18
-13 -24 -13 -17 0 -13 21 6 36 23 16 37 -3 18 -23z m405 12 c0 -14 -3 -25 -7
-25 -5 0 -15 -5 -23 -10 -13 -8 -12 -11 5 -24 13 -10 15 -15 6 -16 -10 0 -11
-3 -2 -14 6 -7 9 -22 5 -32 -5 -18 -5 -18 6 -1 6 9 8 22 4 28 -5 8 -1 8 13 0
28 -14 20 -65 -8 -56 -14 5 -19 1 -19 -14 0 -11 -5 -23 -10 -26 -6 -4 -10 7
-10 27 0 18 0 48 0 67 1 19 -5 38 -12 43 -10 6 -8 13 10 27 12 11 22 26 22 35
0 9 5 16 10 16 6 0 10 -11 10 -25z m37 11 c-2 -6 0 -23 4 -38 5 -18 3 -29 -4
-32 -8 -3 -7 -9 4 -18 16 -13 33 -48 23 -48 -7 0 -84 75 -84 83 0 3 8 4 18 3
20 -4 33 22 21 45 -5 11 -3 16 7 16 8 0 13 -5 11 -11z m-1317 -16 c0 -5 -7
-10 -16 -10 -8 0 -12 5 -9 10 3 6 10 10 16 10 5 0 9 -4 9 -10z m1420 4 c0 -7
-27 -34 -34 -34 -4 0 -1 9 6 20 12 19 28 27 28 14z m-537 -93 c5 -40 4 -41 -9
-23 -8 12 -13 35 -12 51 3 41 14 26 21 -28z m481 44 c3 -8 3 -22 -1 -31 -5
-13 -7 -13 -14 -2 -11 17 -11 48 0 48 5 0 11 -7 15 -15z m64 -5 c-13 -20 -28
-27 -28 -12 0 10 22 32 32 32 5 0 3 -9 -4 -20z m-360 -22 c17 -17 15 -45 -3
-52 -17 -6 -19 -15 -5 -36 7 -11 12 -12 21 -3 9 9 15 9 25 -2 19 -19 18 -29
-8 -51 -13 -10 -17 -12 -10 -4 14 17 16 50 2 50 -5 0 -10 -4 -10 -10 0 -19
-17 -10 -30 15 -10 20 -11 28 -2 37 16 16 15 55 0 61 -7 3 -8 6 -2 6 5 1 15
-4 22 -11z m392 -2 c0 -11 -19 -15 -25 -6 -3 5 1 10 9 10 9 0 16 -2 16 -4z
m-1446 -27 c-7 -11 -34 -12 -34 -1 0 14 11 21 26 15 8 -3 11 -9 8 -14z m1414
-6 c12 -12 13 -18 4 -21 -6 -2 -12 -12 -12 -23 0 -10 -4 -19 -9 -19 -5 0 -14
-13 -20 -30 -9 -28 -31 -42 -31 -20 0 20 -15 9 -28 -20 -13 -29 -32 -41 -32
-20 0 6 5 10 10 10 6 0 10 9 10 19 0 11 6 21 13 24 10 4 10 7 0 18 -16 16 -17
59 -2 59 7 0 9 -10 7 -25 -3 -15 1 -30 12 -40 16 -15 20 -13 44 32 16 28 23
49 17 51 -11 4 -15 22 -5 22 3 0 13 -8 22 -17z m-1155 0 c-7 -2 -13 -12 -13
-21 0 -13 -3 -13 -12 -4 -10 10 -10 15 2 22 8 5 20 9 25 9 6 0 4 -3 -2 -6z
m952 -20 c-2 -10 -4 -24 -4 -30 -2 -27 -18 -12 -19 17 0 19 4 30 13 30 7 0 12
-8 10 -17z m155 -3 c0 -19 -11 -26 -23 -14 -8 8 3 34 14 34 5 0 9 -9 9 -20z
m-1340 -10 c0 -5 -4 -10 -10 -10 -5 0 -10 5 -10 10 0 6 5 10 10 10 6 0 10 -4
10 -10z m1134 -25 c-4 -8 -8 -15 -10 -15 -2 0 -4 7 -4 15 0 8 4 15 10 15 5 0
7 -7 4 -15z m-1134 -14 c0 -6 -4 -12 -8 -15 -5 -3 -9 1 -9 9 0 8 4 15 9 15 4
0 8 -4 8 -9z m1165 -11 c7 -11 -38 -24 -57 -17 -8 3 -4 9 12 15 32 14 38 14
45 2z m-965 -10 c0 -5 -4 -10 -10 -10 -5 0 -10 5 -10 10 0 6 5 10 10 10 6 0
10 -4 10 -10z m1060 -5 c-7 -9 -15 -13 -17 -11 -7 7 7 26 19 26 6 0 6 -6 -2
-15z m-504 -47 c-9 -51 -19 -78 -26 -78 -17 0 -20 19 -4 34 8 9 13 20 10 25
-8 12 3 41 15 41 5 0 7 -10 5 -22z m-80 -56 c-9 -8 -56 39 -56 56 0 9 12 3 31
-17 17 -18 28 -35 25 -39z m-721 48 c3 -5 1 -10 -4 -10 -6 0 -11 5 -11 10 0 6
2 10 4 10 3 0 8 -4 11 -10z m265 0 c0 -5 -4 -10 -10 -10 -5 0 -10 5 -10 10 0
6 5 10 10 10 6 0 10 -4 10 -10z m-45 -20 c3 -5 1 -10 -4 -10 -6 0 -11 5 -11
10 0 6 2 10 4 10 3 0 8 -4 11 -10z m2214 -16 c-17 -21 -31 -17 -17 5 7 11 16
17 20 14 5 -2 4 -11 -3 -19z m-2450 -20 c-14 -18 -24 -11 -15 11 3 9 11 13 16
10 8 -5 7 -11 -1 -21z m301 7 c0 -11 5 -23 10 -26 15 -9 12 -32 -5 -39 -8 -3
-14 -2 -14 2 3 21 -2 42 -10 38 -4 -3 -6 6 -3 19 5 30 22 34 22 6z m-51 -17
c-9 -11 -9 -17 1 -29 8 -10 9 -15 2 -15 -6 0 -16 9 -22 20 -7 14 -7 20 0 20 5
0 10 7 10 16 0 8 5 12 10 9 8 -5 7 -11 -1 -21z m-689 6 c0 -5 -4 -10 -10 -10
-5 0 -10 5 -10 10 0 6 5 10 10 10 6 0 10 -4 10 -10z m126 -116 c1 -10 5 -27 9
-36 4 -10 3 -18 -3 -18 -6 0 -13 6 -15 13 -7 17 -27 -11 -20 -29 3 -7 1 -19
-3 -26 -6 -9 -10 -4 -14 17 -4 17 -2 36 3 43 5 6 6 12 3 12 -4 0 -4 6 1 13 4
6 8 15 9 20 1 4 2 10 3 13 3 14 26 -4 27 -22z m-101 -4 c3 -5 -1 -10 -9 -10
-9 0 -16 5 -16 10 0 6 4 10 9 10 6 0 13 -4 16 -10z m35 -74 c0 -8 -6 -16 -14
-19 -17 -7 -30 20 -13 27 21 8 27 6 27 -8z m76 -25 c0 -16 -4 -27 -8 -25 -11
7 -10 54 1 54 5 0 8 -13 7 -29z m764 25 c0 -3 -4 -8 -10 -11 -5 -3 -10 -1 -10
4 0 6 5 11 10 11 6 0 10 -2 10 -4z m-870 -40 c0 -2 -7 -6 -15 -10 -8 -3 -15
-1 -15 4 0 6 7 10 15 10 8 0 15 -2 15 -4z m113 -39 c4 3 7 4 7 0 0 -17 -20
-14 -36 6 -19 22 -19 22 2 4 11 -9 24 -14 27 -10z m386 -59 c1 -15 8 -53 16
-85 20 -75 19 -80 -7 -86 -13 -2 -32 -8 -42 -12 -18 -8 -19 -5 -12 61 10 106
29 189 37 167 4 -10 8 -30 8 -45z m622 15 c13 -16 12 -17 -3 -4 -17 13 -22 21
-14 21 2 0 10 -8 17 -17z m114 -153 c3 -6 -1 -7 -9 -4 -18 7 -21 14 -7 14 6 0
13 -4 16 -10z m-289 -460 c2 -52 -3 -74 -23 -110 -39 -72 -64 -85 -159 -83
-90 1 -139 20 -186 71 -31 34 -58 126 -42 142 21 21 189 47 299 46 l110 -1 1
-65z m-781 -159 c3 -5 2 -12 -3 -15 -5 -3 -9 1 -9 9 0 17 3 19 12 6z m-535
-11 c0 -5 -4 -10 -10 -10 -5 0 -10 5 -10 10 0 6 5 10 10 10 6 0 10 -4 10 -10z
m57 4 c-3 -3 -12 -4 -19 -1 -8 3 -5 6 6 6 11 1 17 -2 13 -5z m63 -4 c0 -5 -2
-10 -4 -10 -3 0 -8 5 -11 10 -3 6 -1 10 4 10 6 0 11 -4 11 -10z m-200 -14 c0
-3 -4 -8 -10 -11 -5 -3 -10 -1 -10 4 0 6 5 11 10 11 6 0 10 -2 10 -4z m160 -6
c0 -5 -4 -10 -10 -10 -5 0 -10 5 -10 10 0 6 5 10 10 10 6 0 10 -4 10 -10z m60
-14 c0 -3 -4 -8 -10 -11 -5 -3 -10 -1 -10 4 0 6 5 11 10 11 6 0 10 -2 10 -4z
m-252 -36 c-7 -11 -16 -20 -20 -20 -11 0 -10 9 5 25 18 21 29 18 15 -5z m144
-12 c14 -32 28 -37 28 -10 1 15 2 15 16 -3 12 -17 16 -18 24 -5 5 8 12 11 17
7 4 -5 1 -12 -6 -16 -11 -7 -10 -13 8 -32 24 -26 27 -46 7 -46 -8 0 -12 6 -9
12 6 16 -43 72 -53 62 -5 -4 -2 -12 6 -17 8 -6 11 -10 5 -10 -17 1 -55 38 -55
54 0 19 -40 22 -58 4 -9 -9 -12 -9 -12 3 0 22 6 26 40 26 23 0 33 -7 42 -29z
m68 17 c0 -7 -11 -10 -30 -7 -16 2 -30 8 -30 11 0 4 14 8 30 8 17 0 30 -6 30
-12z m63 -31 c-21 -33 -22 -28 13 -65 15 -16 24 -29 20 -29 -18 0 -63 64 -59
81 3 11 9 19 13 19 4 0 11 10 15 23 3 12 9 17 11 10 3 -6 -3 -24 -13 -39z
m-225 -16 c-3 -16 -1 -31 4 -34 14 -9 9 -21 -10 -26 -16 -4 -18 1 -16 36 2 23
3 47 3 54 1 7 6 10 12 6 6 -3 9 -20 7 -36z m70 3 c34 -33 32 -41 -9 -41 -29 0
-43 21 -34 51 8 24 6 24 43 -10z m-168 15 c0 -3 -4 -8 -10 -11 -5 -3 -10 -1
-10 4 0 6 5 11 10 11 6 0 10 -2 10 -4z m372 -8 c-15 -15 -16 -42 0 -32 7 4 8
3 4 -4 -7 -12 -36 -5 -36 9 0 13 23 38 35 39 5 0 4 -5 -3 -12z m-322 -30 c20
-25 18 -33 -10 -48 -15 -8 -21 -6 -31 11 -10 20 -9 21 10 16 14 -3 21 0 21 9
0 13 -13 19 -33 15 -5 -1 -6 3 -2 9 10 16 25 12 45 -12z m4690 12 c0 -5 -4
-10 -10 -10 -5 0 -10 5 -10 10 0 6 5 10 10 10 6 0 10 -4 10 -10z m-4760 -20
c0 -5 -4 -10 -10 -10 -5 0 -10 5 -10 10 0 6 5 10 10 10 6 0 10 -4 10 -10z
m4712 -27 c14 -13 17 -12 26 3 9 17 11 17 28 0 11 -11 13 -20 7 -24 -15 -10
-43 -69 -36 -76 4 -3 0 -6 -9 -6 -25 0 -28 12 -6 30 21 17 20 50 -1 50 -6 0
-8 -6 -5 -13 6 -17 -32 -52 -41 -38 -3 6 -1 11 5 11 6 0 14 10 19 23 7 16 4
27 -10 40 -35 33 -16 33 23 0z m-42 -25 c0 -10 -4 -18 -9 -18 -5 0 -7 9 -4 20
3 12 0 20 -6 20 -7 0 -9 5 -5 11 8 14 24 -8 24 -33z m-4670 12 c0 -5 -5 -10
-11 -10 -5 0 -7 5 -4 10 3 6 8 10 11 10 2 0 4 -4 4 -10z m4787 -60 c-12 -32
-27 -40 -27 -15 0 16 20 44 32 45 3 0 1 -13 -5 -30z m37 -15 c-4 -8 -14 -15
-23 -15 -14 1 -13 3 3 15 25 19 27 19 20 0z m-173 -122 c13 -16 12 -17 -3 -4
-10 7 -18 15 -18 17 0 8 8 3 21 -13z m-96 -23 c3 -5 1 -10 -4 -10 -6 0 -11 5
-11 10 0 6 2 10 4 10 3 0 8 -4 11 -10z m165 6 c0 -3 -4 -8 -10 -11 -5 -3 -10
-1 -10 4 0 6 5 11 10 11 6 0 10 -2 10 -4z m-4460 -26 c0 -5 -4 -10 -10 -10 -5
0 -10 5 -10 10 0 6 5 10 10 10 6 0 10 -4 10 -10z m424 -165 c3 -8 -2 -19 -12
-24 -14 -8 -15 -12 -4 -22 14 -16 16 -39 2 -39 -5 0 -10 10 -10 21 0 17 -3 19
-14 10 -8 -7 -11 -22 -8 -38 3 -18 1 -24 -7 -19 -18 12 -14 64 7 69 14 4 14 6
-5 12 -28 9 -28 14 -5 31 23 18 49 17 56 -1z m277 -62 c13 -17 13 -17 -6 -3
-11 8 -22 16 -24 17 -2 2 0 3 6 3 6 0 17 -8 24 -17z m-241 -7 c0 -3 -4 -8 -10
-11 -5 -3 -10 -1 -10 4 0 6 5 11 10 11 6 0 10 -2 10 -4z m-34 -42 c-3 -9 -6
-34 -6 -57 -1 -41 -1 -42 -15 -17 -7 14 -10 27 -6 30 3 3 6 17 6 33 -1 17 4
27 13 27 9 0 12 -6 8 -16z m2321 -23 c39 -11 203 -154 203 -178 0 -6 6 -18 13
-25 29 -33 39 -59 26 -75 -11 -12 -10 -14 6 -11 10 1 20 -3 23 -11 3 -10 0
-12 -12 -8 -9 4 -15 3 -12 -2 6 -9 -37 -42 -58 -45 -6 -1 -18 -6 -26 -11 -21
-13 -32 -14 -84 -4 -54 10 -64 18 -95 79 -13 25 -34 66 -47 91 -13 26 -24 54
-24 62 0 8 -7 20 -15 27 -22 18 -19 39 5 33 11 -3 20 -9 20 -13 0 -5 17 -19
38 -31 20 -13 41 -29 45 -36 5 -7 12 -11 16 -9 4 3 18 -4 29 -14 34 -32 71
-43 79 -24 3 8 12 13 19 10 8 -3 3 13 -13 37 -14 23 -30 44 -35 45 -4 2 -6 8
-2 13 5 8 -10 13 -30 10 -13 -3 -37 21 -33 33 3 6 -5 12 -17 12 -28 2 -126 37
-126 46 0 8 40 17 57 12 6 -2 29 -8 50 -13z m-2367 1 c0 -5 -7 -9 -15 -9 -8 0
-12 4 -9 9 3 4 9 8 15 8 5 0 9 -4 9 -8z m3071 -19 c13 -16 12 -17 -3 -4 -10 7
-18 15 -18 17 0 8 8 3 21 -13z m-963 -8 c-2 -6 -6 -9 -10 -7 -5 1 -7 -2 -5 -6
6 -20 -138 -153 -181 -166 -12 -4 -19 -12 -16 -18 4 -7 2 -8 -4 -4 -6 4 -33
-9 -60 -29 -27 -19 -52 -35 -55 -35 -3 0 -29 -16 -58 -36 -54 -36 -54 -36
-144 -32 -77 4 -101 10 -163 39 -40 19 -70 38 -67 41 3 3 -1 8 -10 12 -9 3
-13 2 -10 -4 11 -17 -1 -11 -31 17 -16 15 -28 31 -26 36 1 5 -1 6 -6 3 -9 -5
-137 122 -130 129 2 2 42 5 88 6 58 1 99 7 129 20 52 23 89 24 118 4 11 -8 40
-16 64 -17 101 -5 392 23 524 51 47 10 58 9 53 -4z m-2108 -15 c0 -5 -2 -10
-4 -10 -3 0 -8 5 -11 10 -3 6 -1 10 4 10 6 0 11 -4 11 -10z m16 -41 c1 -5 2
-18 3 -29 0 -11 7 -20 15 -20 8 0 18 -4 21 -10 3 -5 0 -7 -8 -4 -19 7 -38 -18
-27 -36 7 -11 11 -11 24 -1 11 9 16 10 16 2 0 -6 -5 -11 -10 -11 -7 0 -6 -8 1
-22 12 -22 11 -22 -7 -8 -47 37 -58 64 -31 73 9 3 9 7 0 18 -10 13 -17 42 -14
63 1 11 15 -1 17 -15z m2219 -123 c28 -61 66 -140 82 -176 35 -74 184 -433
233 -560 56 -146 186 -396 263 -508 26 -39 28 -47 16 -68 -16 -30 -225 -234
-239 -234 -11 0 -27 34 -82 170 -28 69 -57 161 -109 345 -106 373 -119 403
-186 431 l-33 14 -1 83 c-1 45 -4 92 -7 105 -7 23 -26 31 -28 12 -1 -5 -3 -11
-4 -12 -1 -2 -4 -39 -6 -82 -2 -44 -6 -81 -8 -84 -3 -2 -23 -1 -45 3 l-40 7
-7 65 c-4 37 -3 103 1 147 5 45 9 141 11 215 l2 133 58 59 c31 32 62 55 67 52
5 -3 33 -56 62 -117z m-1975 90 c0 -3 -4 -8 -10 -11 -5 -3 -10 -1 -10 4 0 6 5
11 10 11 6 0 10 -2 10 -4z m863 -78 c2 -7 0 -29 -4 -48 -9 -44 -22 -314 -23
-479 l-1 -124 -27 -9 c-35 -12 -80 -81 -102 -155 -10 -32 -21 -67 -26 -78 -4
-11 -16 -49 -25 -85 -9 -36 -28 -99 -41 -140 -26 -80 -31 -97 -90 -287 -21
-68 -43 -123 -50 -123 -6 0 -36 17 -66 38 -30 20 -84 56 -119 80 -40 27 -63
49 -61 59 11 53 292 684 427 958 82 168 125 260 125 269 0 2 13 34 30 70 28
64 44 80 53 54z m-1086 -63 c-5 -37 -17 -42 -17 -7 0 18 5 32 10 32 6 0 9 -11
7 -25z m39 -67 c6 -19 -24 -54 -36 -41 -3 3 1 8 8 10 14 5 16 43 2 43 -5 0
-10 -5 -10 -11 0 -5 -4 -7 -10 -4 -13 8 11 34 27 28 7 -3 15 -14 19 -25z m4
-52 c0 -3 -4 -8 -10 -11 -5 -3 -10 -1 -10 4 0 6 5 11 10 11 6 0 10 -2 10 -4z
m1471 -42 c104 -16 107 -16 147 5 23 12 44 21 47 21 3 0 5 -62 4 -137 0 -76 3
-157 7 -180 l7 -43 -59 0 c-63 -1 -222 -16 -266 -26 -33 -8 -35 -2 -48 151 -5
66 -13 147 -16 179 l-7 59 39 -7 c21 -3 87 -13 145 -22z m-1491 5 c0 -7 10
-20 22 -30 11 -11 19 -21 17 -24 -7 -6 -53 37 -56 53 -2 6 2 12 7 12 6 0 10
-5 10 -11z m60 -89 c0 -5 -5 -10 -11 -10 -5 0 -7 5 -4 10 3 6 8 10 11 10 2 0
4 -4 4 -10z m-40 -31 c0 -6 10 -19 23 -30 14 -12 18 -21 11 -26 -6 -5 -14 -17
-18 -28 -6 -13 -10 -16 -13 -7 -3 7 1 19 8 28 10 12 8 18 -9 35 -22 20 -31 56
-12 44 6 -3 10 -11 10 -16z m46 -113 c18 -19 18 -27 0 -20 -14 5 -31 34 -20
34 3 0 12 -6 20 -14z m1852 -143 l3 -70 -41 -13 c-22 -7 -59 -14 -83 -14 l-42
-1 -3 51 c-4 67 16 91 88 108 30 8 60 13 65 12 6 -2 11 -34 13 -73z m-628 -31
c0 -47 -24 -61 -111 -69 -61 -6 -58 -9 -73 60 l-6 27 67 1 c38 0 77 4 88 9 32
14 35 12 35 -28z m-363 -368 c-3 -4 1 -14 10 -23 15 -15 15 -16 0 -19 -18 -4
-24 -22 -7 -22 20 0 10 -19 -12 -23 l-23 -4 23 -8 c27 -9 28 -21 2 -28 -20 -5
-24 -37 -7 -53 13 -14 7 -24 -14 -24 -18 0 -19 -2 -9 -15 10 -12 10 -18 0 -30
-7 -8 -9 -15 -5 -15 5 0 0 -9 -11 -21 -18 -20 -18 -20 11 -15 l30 5 -25 -19
c-14 -11 -28 -20 -32 -20 -3 0 -9 -13 -13 -30 -4 -16 -11 -32 -16 -35 -5 -4
-9 -11 -9 -17 0 -6 11 -1 25 12 41 39 40 15 -1 -30 -22 -23 -39 -49 -39 -58 0
-15 -28 -52 -39 -52 -7 0 6 73 16 93 5 10 11 28 13 40 3 12 11 38 19 57 15 37
42 129 50 170 24 123 46 190 64 190 3 0 3 -3 -1 -6z m-47 -354 c0 -5 -4 -10
-10 -10 -5 0 -10 5 -10 10 0 6 5 10 10 10 6 0 10 -4 10 -10z m1885 -104 c-15
-19 -24 -40 -21 -45 4 -5 1 -13 -5 -17 -6 -3 -15 -1 -20 7 -6 10 -10 7 -18
-13 -8 -23 -59 -58 -82 -58 -18 0 45 77 84 103 23 15 50 37 60 48 30 32 32 14
2 -25z m-375 -2 c7 -19 9 -38 6 -41 -3 -4 -7 -4 -8 -2 -20 33 -35 69 -30 73
12 13 21 5 32 -30z m-1550 -8 c0 -3 -4 -8 -10 -11 -5 -3 -10 -1 -10 4 0 6 5
11 10 11 6 0 10 -2 10 -4z m255 -6 c-3 -5 -11 -10 -16 -10 -6 0 -7 5 -4 10 3
6 11 10 16 10 6 0 7 -4 4 -10z m-596 -34 c8 -9 17 -14 21 -11 9 6 45 -33 37
-41 -10 -11 -107 62 -107 81 0 9 35 -12 49 -29z m1606 -3 c63 -35 80 -102 42
-175 -13 -26 -21 -51 -18 -57 3 -5 24 -12 46 -16 22 -4 53 -19 69 -34 31 -28
71 -108 81 -163 7 -35 5 -36 -47 -66 -46 -26 -95 -48 -183 -82 -11 -4 -33 -13
-50 -20 -16 -6 -59 -18 -95 -25 -36 -8 -83 -20 -105 -27 -29 -9 -107 -13 -280
-12 -248 1 -328 9 -445 46 -54 17 -205 82 -219 94 -12 11 30 73 86 127 83 80
88 89 67 128 -27 53 -2 149 48 181 60 38 114 18 150 -57 12 -25 29 -45 37 -45
9 0 36 11 60 25 94 54 284 76 429 50 50 -9 98 -15 106 -12 7 3 17 22 21 43 16
90 60 126 138 114 23 -3 51 -11 62 -17z m-275 -48 c-7 -14 -20 -25 -27 -25
-11 0 -9 7 6 26 11 15 18 31 14 38 -3 7 -1 6 7 -1 11 -11 11 -17 0 -38z m590
25 c0 -5 -5 -10 -11 -10 -5 0 -7 5 -4 10 3 6 8 10 11 10 2 0 4 -4 4 -10z
m-1044 -19 c9 8 11 5 7 -10 -3 -12 -1 -21 6 -21 6 0 11 5 11 10 0 6 5 10 10
10 21 0 8 -19 -20 -29 -26 -9 -30 -8 -30 8 0 9 -4 22 -10 29 -7 9 -7 9 2 2 7
-6 16 -6 24 1z m84 -17 c0 -14 -4 -23 -10 -19 -5 3 -10 15 -10 26 0 10 5 19
10 19 6 0 10 -12 10 -26z m40 6 c0 -11 -4 -20 -10 -20 -5 0 -10 9 -10 20 0 11
5 20 10 20 6 0 10 -9 10 -20z m40 10 c0 -5 -4 -10 -10 -10 -5 0 -10 5 -10 10
0 6 5 10 10 10 6 0 10 -4 10 -10z m54 1 c3 -5 -3 -11 -15 -14 -16 -4 -18 -3
-8 9 13 16 16 17 23 5z m46 0 c0 -5 -7 -12 -16 -15 -14 -5 -15 -4 -4 9 14 17
20 19 20 6z m40 -1 c0 -5 -5 -10 -11 -10 -5 0 -7 5 -4 10 3 6 8 10 11 10 2 0
4 -4 4 -10z m60 0 c0 -5 -5 -10 -11 -10 -5 0 -7 5 -4 10 3 6 8 10 11 10 2 0 4
-4 4 -10z m54 1 c3 -5 0 -11 -7 -14 -8 -3 -14 1 -14 9 0 16 13 19 21 5z m-459
-40 c-3 -6 -14 -11 -23 -11 -15 1 -15 2 2 15 21 16 32 13 21 -4z m-345 -39 c0
-5 -7 -9 -15 -9 -8 0 -12 4 -9 9 3 4 9 8 15 8 5 0 9 -4 9 -8z m1261 -55 c-16
-16 -26 0 -10 19 9 11 15 12 17 4 2 -6 -1 -17 -7 -23z m49 -7 c0 -5 -2 -10 -4
-10 -3 0 -8 5 -11 10 -3 6 -1 10 4 10 6 0 11 -4 11 -10z m20 -68 c0 -17 -35 1
-44 23 -3 8 -13 15 -21 15 -9 0 -13 4 -10 10 8 12 75 -30 75 -48z m-1405 -32
c3 -5 1 -10 -4 -10 -6 0 -11 5 -11 10 0 6 2 10 4 10 3 0 8 -4 11 -10z m36 -30
c-4 -3 -11 -14 -14 -24 -4 -10 -10 -17 -12 -14 -3 2 1 19 7 36 8 20 15 27 20
19 4 -6 3 -14 -1 -17z m1219 -366 c0 -26 14 -106 31 -178 17 -72 34 -169 38
-216 8 -118 -5 -332 -27 -410 -19 -73 -26 -76 -129 -79 -47 -1 -53 1 -57 22
-3 12 -7 128 -10 257 -6 247 -23 399 -57 514 -11 38 -17 72 -12 76 4 4 40 15
78 25 39 10 77 22 85 26 8 5 25 9 38 9 20 0 22 -5 22 -46z m-985 -18 c50 -8
112 -17 138 -21 l49 -7 -6 -71 c-3 -40 -12 -148 -20 -242 -18 -201 -24 -463
-13 -487 12 -24 -18 -30 -84 -18 -61 11 -98 35 -117 73 -24 48 -41 233 -46
490 -3 142 -8 263 -12 268 -8 13 3 42 14 35 4 -2 48 -11 97 -20z"/>
<path d="M2380 5796 c0 -2 8 -10 18 -17 15 -13 16 -12 3 4 -13 16 -21 21 -21
13z"/>
<path d="M2900 5750 c0 -5 5 -10 10 -10 6 0 10 5 10 10 0 6 -4 10 -10 10 -5 0
-10 -4 -10 -10z"/>
<path d="M2946 5719 c3 -6 3 -14 -2 -18 -5 -3 1 -16 13 -28 17 -16 23 -18 23
-8 0 8 -4 15 -10 15 -5 0 -10 5 -10 11 0 6 9 8 20 4 14 -5 20 -2 20 9 0 9 5
16 12 16 6 0 9 3 6 6 -4 3 -17 0 -29 -7 -17 -9 -24 -9 -27 0 -2 6 -8 11 -13
11 -6 0 -7 -5 -3 -11z"/>
<path d="M2885 5710 c3 -5 10 -10 16 -10 5 0 9 5 9 10 0 6 -7 10 -16 10 -8 0
-12 -4 -9 -10z"/>
<path d="M3120 5708 c0 -9 -2 -22 -3 -30 -2 -7 -2 -10 0 -5 8 12 23 8 23 -7 0
-8 5 -18 11 -22 17 -10 2 47 -17 66 -12 12 -14 12 -14 -2z"/>
<path d="M2855 5690 c6 -9 -8 -15 -29 -11 -5 1 -3 -5 4 -14 13 -16 15 -15 27
1 16 22 17 34 2 34 -5 0 -7 -4 -4 -10z"/>
<path d="M3007 5681 c-4 -17 -3 -21 5 -13 5 5 8 16 6 23 -3 8 -7 3 -11 -10z"/>
<path d="M2880 5674 c0 -8 5 -12 10 -9 6 3 10 10 10 16 0 5 -4 9 -10 9 -5 0
-10 -7 -10 -16z"/>
<path d="M3077 5683 c-4 -3 -6 -20 -6 -37 1 -17 3 -23 6 -13 2 9 10 17 16 17
7 0 6 4 -3 10 -13 9 -13 11 0 20 8 5 10 10 4 10 -6 0 -14 -3 -17 -7z"/>
<path d="M2924 5669 c-3 -6 -1 -16 4 -21 8 -8 11 -5 9 11 -1 24 -3 25 -13 10z"/>
<path d="M2810 5626 c13 -13 13 -39 0 -31 -5 3 -10 1 -10 -4 0 -13 11 -14 25
-3 14 10 17 32 4 32 -5 0 -8 4 -5 8 3 5 -2 9 -10 9 -10 0 -11 -4 -4 -11z"/>
<path d="M2903 5605 c0 -19 3 -35 7 -35 9 0 11 58 2 64 -5 3 -9 -10 -9 -29z"/>
<path d="M3103 5611 c4 -17 0 -37 -9 -50 -8 -11 -11 -21 -6 -21 8 0 19 19 40
70 8 22 7 26 -10 27 -17 2 -19 -3 -15 -26z"/>
<path d="M3190 5631 c0 -6 4 -13 10 -16 6 -3 7 1 4 9 -7 18 -14 21 -14 7z"/>
<path d="M2945 5609 c-8 -25 -4 -31 15 -19 10 6 11 10 3 10 -7 0 -10 7 -7 15
4 8 4 15 1 15 -3 0 -9 -9 -12 -21z"/>
<path d="M3023 5610 c1 -11 5 -20 9 -20 4 0 8 9 8 20 0 11 -4 20 -9 20 -6 0
-9 -9 -8 -20z"/>
<path d="M2860 5615 c0 -5 5 -17 10 -25 5 -8 10 -10 10 -5 0 6 -5 17 -10 25
-5 8 -10 11 -10 5z"/>
<path d="M2984 5596 c1 -13 7 -30 13 -37 6 -8 9 -22 8 -32 -2 -9 1 -15 6 -11
14 8 11 41 -5 47 -9 4 -12 14 -9 25 2 11 1 22 -5 25 -5 4 -8 -4 -8 -17z"/>
<path d="M3145 5596 c0 -13 3 -27 7 -31 3 -3 5 2 5 12 -2 13 4 17 23 16 l25
-3 -25 15 c-34 19 -36 19 -35 -9z"/>
<path d="M3062 5593 c0 -10 -2 -27 -6 -38 -5 -13 -2 -11 8 5 17 29 20 50 7 50
-6 0 -9 -8 -9 -17z"/>
<path d="M3230 5590 c12 -23 6 -40 -15 -40 -8 0 -12 -6 -9 -14 4 -11 10 -9 28
8 27 26 28 40 4 55 -17 11 -18 10 -8 -9z"/>
<path d="M3184 5566 c-10 -8 -17 -16 -14 -19 3 -2 14 4 24 14 23 22 18 25 -10
5z"/>
<path d="M2821 5567 c2 -1 15 -11 29 -22 l25 -20 -19 23 c-11 12 -24 22 -29
22 -6 0 -8 -1 -6 -3z"/>
<path d="M2874 5555 c8 -8 18 -15 22 -15 3 0 1 7 -6 15 -7 8 -17 15 -22 15 -5
0 -3 -7 6 -15z"/>
<path d="M2935 5562 c-5 -4 -12 -16 -13 -27 -4 -23 0 -20 17 13 12 24 12 26
-4 14z"/>
<path d="M2967 5541 c-3 -11 1 -22 8 -24 8 -4 10 3 7 19 -5 29 -8 30 -15 5z"/>
<path d="M3120 5540 c0 -5 5 -10 10 -10 6 0 10 5 10 10 0 6 -4 10 -10 10 -5 0
-10 -4 -10 -10z"/>
<path d="M2788 5525 c4 -5 7 -16 8 -23 1 -7 14 -22 28 -33 19 -15 26 -29 24
-50 -1 -16 -5 -29 -9 -29 -4 0 -5 -9 -2 -21 4 -12 0 -25 -8 -29 -7 -5 -10 -12
-6 -16 4 -4 12 -3 18 3 8 8 20 8 34 3 28 -11 37 -3 24 21 -5 10 -16 16 -24 13
-15 -6 -20 12 -15 64 1 14 -10 32 -30 49 -27 22 -29 28 -16 35 10 5 24 4 38
-3 23 -11 23 -11 4 7 -20 20 -80 28 -68 9z"/>
<path d="M3241 5533 c-1 -17 16 -25 25 -12 4 7 3 9 -4 5 -5 -3 -13 0 -15 6 -4
9 -6 10 -6 1z"/>
<path d="M2880 5520 c0 -5 5 -10 11 -10 5 0 7 5 4 10 -3 6 -8 10 -11 10 -2 0
-4 -4 -4 -10z"/>
<path d="M3097 5519 c7 -7 15 -10 18 -7 3 3 -2 9 -12 12 -14 6 -15 5 -6 -5z"/>
<path d="M3153 5513 c-3 -10 -7 -20 -9 -23 -1 -3 2 -12 7 -20 9 -13 10 -13 6
0 -2 8 0 25 4 38 5 12 6 22 3 22 -2 0 -7 -8 -11 -17z"/>
<path d="M2935 5510 c-3 -5 1 -10 10 -10 9 0 13 5 10 10 -3 6 -8 10 -10 10 -2
0 -7 -4 -10 -10z"/>
<path d="M3065 5509 c-8 -12 32 -59 49 -59 6 0 4 5 -4 11 -11 8 -12 12 -2 16
20 8 14 20 -10 19 -13 -1 -22 4 -20 12 3 15 -4 16 -13 1z"/>
<path d="M2880 5492 c0 -7 -7 -9 -17 -5 -16 6 -16 5 -4 -11 13 -16 15 -16 24
-1 5 9 6 19 3 22 -3 4 -6 1 -6 -5z"/>
<path d="M2902 5475 c-1 -13 2 -26 6 -29 5 -3 9 8 9 24 0 36 -12 40 -15 5z"/>
<path d="M2985 5490 c-3 -5 -1 -10 4 -10 6 0 11 5 11 10 0 6 -2 10 -4 10 -3 0
-8 -4 -11 -10z"/>
<path d="M2943 5478 c2 -7 0 -21 -5 -30 -6 -13 -5 -16 5 -12 14 5 18 54 4 54
-5 0 -7 -6 -4 -12z"/>
<path d="M3023 5458 c0 -30 1 -30 10 -10 7 15 7 26 0 33 -6 6 -10 -1 -10 -23z"/>
<path d="M3055 5446 c-31 -34 -55 -77 -49 -87 5 -8 10 -6 16 5 5 9 14 13 20
10 7 -4 8 -2 4 4 -4 7 -1 12 6 12 10 0 10 2 -1 9 -11 7 -9 13 7 29 12 12 18
23 14 26 -4 2 -12 -1 -17 -8z"/>
<path d="M2980 5434 c0 -8 5 -12 10 -9 6 3 10 10 10 16 0 5 -4 9 -10 9 -5 0
-10 -7 -10 -16z"/>
<path d="M2920 5411 c0 -6 5 -11 10 -11 6 0 10 -5 10 -11 0 -6 -9 -8 -22 -4
-16 4 -19 4 -9 -3 7 -5 11 -15 7 -20 -8 -14 31 -35 50 -28 8 3 14 14 14 25 0
11 5 21 12 23 6 2 8 10 4 17 -5 8 -12 9 -20 2 -9 -7 -19 -6 -34 5 -13 9 -22
11 -22 5z m40 -52 c0 -11 -4 -17 -10 -14 -5 3 -10 13 -10 21 0 8 5 14 10 14 6
0 10 -9 10 -21z"/>
<path d="M2260 5756 c14 -18 13 -19 -7 -14 -16 4 -20 2 -16 -9 3 -8 12 -12 20
-9 8 3 11 2 8 -3 -3 -5 -1 -12 5 -16 16 -10 7 45 -10 58 -13 11 -13 10 0 -7z"/>
<path d="M2348 5688 c-4 -40 -3 -96 3 -92 7 4 9 104 2 104 -1 0 -4 -6 -5 -12z"/>
<path d="M2261 5683 c5 -34 -2 -51 -21 -46 -12 3 -20 0 -20 -7 0 -7 -7 -10
-17 -5 -14 5 -15 4 -6 -6 8 -8 16 -9 25 -2 7 5 22 8 34 8 16 -2 20 4 21 31 1
19 -3 34 -8 34 -5 0 -8 -3 -8 -7z"/>
<path d="M2215 5670 c3 -5 11 -10 16 -10 6 0 7 5 4 10 -3 6 -11 10 -16 10 -6
0 -7 -4 -4 -10z"/>
<path d="M2304 5629 c0 -21 4 -39 9 -39 5 0 4 -6 -2 -14 -9 -10 -8 -15 3 -19
9 -4 13 -19 12 -46 -1 -22 0 -38 3 -36 2 3 14 -3 25 -12 21 -18 21 -18 3 4
-11 12 -19 37 -19 57 0 20 -4 36 -8 36 -5 0 -9 8 -9 18 0 9 -1 32 -2 49 -1 47
-15 49 -15 2z"/>
<path d="M2160 5614 c0 -14 4 -23 10 -19 6 3 10 15 10 26 0 10 -4 19 -10 19
-5 0 -10 -12 -10 -26z"/>
<path d="M2261 5603 c5 -29 -2 -34 -23 -19 -32 22 -37 20 -36 -15 1 -17 -4
-34 -11 -39 -10 -5 -9 -9 3 -13 21 -8 28 6 21 42 -4 24 -2 29 10 25 16 -7 29
-39 20 -53 -3 -5 -2 -12 3 -15 4 -2 9 5 9 16 1 12 6 24 10 27 13 9 15 51 4 51
-6 0 -10 -3 -10 -7z"/>
<path d="M2145 5570 c3 -5 8 -10 11 -10 2 0 4 5 4 10 0 6 -5 10 -11 10 -5 0
-7 -4 -4 -10z"/>
<path d="M2285 5533 c1 -10 -2 -26 -7 -35 -6 -14 -5 -18 7 -18 9 0 14 4 11 9
-4 5 -2 21 4 35 7 20 6 26 -4 26 -8 0 -13 -8 -11 -17z"/>
<path d="M2360 5516 c0 -9 5 -16 10 -16 6 0 10 4 10 9 0 6 -4 13 -10 16 -5 3
-10 -1 -10 -9z"/>
<path d="M2155 5510 c-3 -5 -1 -10 4 -10 6 0 11 5 11 10 0 6 -2 10 -4 10 -3 0
-8 -4 -11 -10z"/>
<path d="M2196 5492 c-3 -5 1 -9 9 -9 8 0 15 4 15 9 0 4 -4 8 -9 8 -6 0 -12
-4 -15 -8z"/>
<path d="M2160 5465 c0 -7 30 -13 34 -7 3 4 -4 9 -15 9 -10 1 -19 0 -19 -2z"/>
<path d="M2230 5460 c-8 -5 -11 -12 -7 -17 5 -4 12 -1 17 6 4 8 15 11 24 8 9
-4 16 -2 16 3 0 13 -30 13 -50 0z"/>
<path d="M2303 5448 c-2 -16 1 -18 10 -9 7 7 8 14 1 21 -6 6 -10 2 -11 -12z"/>
<path d="M2340 5435 c0 -8 4 -15 10 -15 5 0 7 7 4 15 -4 8 -8 15 -10 15 -2 0
-4 -7 -4 -15z"/>
<path d="M2143 5414 c3 -16 0 -24 -7 -21 -6 3 -11 -6 -11 -19 0 -13 3 -24 8
-24 4 0 7 5 7 11 0 18 29 41 42 33 7 -4 2 5 -11 19 -30 33 -35 34 -28 1z"/>
<path d="M2190 5434 c0 -13 18 -39 24 -34 2 3 -2 14 -10 24 -8 11 -14 16 -14
10z"/>
<path d="M2242 5412 c8 -10 13 -10 18 -1 5 7 14 8 21 4 8 -5 11 -4 6 1 -5 5
-19 9 -32 9 -19 1 -22 -2 -13 -13z"/>
<path d="M2300 5386 c0 -2 7 -7 16 -10 8 -3 12 -2 9 4 -6 10 -25 14 -25 6z"/>
<path d="M2211 5346 c-13 -33 -41 -42 -42 -13 0 12 -3 16 -6 9 -3 -7 -2 -19 1
-28 5 -12 10 -13 27 -3 16 8 23 8 29 0 3 -6 6 4 6 24 -1 41 -3 43 -15 11z"/>
<path d="M2109 5335 c-10 -37 -2 -50 31 -56 46 -9 52 -3 9 9 -27 7 -33 13 -31
30 3 18 -5 33 -9 17z"/>
<path d="M2055 5280 c3 -5 0 -10 -7 -12 -7 -3 -8 -7 -2 -10 5 -4 17 0 27 7 16
12 16 13 -3 18 -11 3 -18 1 -15 -3z"/>
<path d="M4329 4776 c-89 -24 -241 -123 -269 -176 -19 -35 -7 -32 51 11 61 46
150 93 194 103 l30 6 -30 -22 c-105 -77 -155 -183 -155 -327 0 -78 3 -95 30
-148 50 -100 144 -162 256 -171 54 -3 68 0 109 24 107 62 166 185 167 347 l1
94 39 -40 c43 -45 58 -42 59 14 3 121 -164 264 -339 289 -82 12 -86 12 -143
-4z m-11 -341 c92 -19 177 -49 247 -87 54 -29 56 -32 52 -64 -7 -48 -38 -84
-125 -146 -39 -27 -48 -29 -92 -23 -26 4 -56 14 -66 23 -11 10 -30 24 -44 33
-44 29 -72 97 -73 181 -1 73 5 98 23 98 5 0 40 -7 78 -15z"/>
<path d="M2510 4103 c0 -4 5 -15 10 -23 8 -13 10 -13 10 2 0 9 -4 20 -10 23
-5 3 -10 3 -10 -2z"/>
<path d="M2420 5671 c0 -7 -4 -9 -10 -6 -5 3 -10 2 -10 -4 0 -5 4 -12 9 -15
10 -6 25 24 16 32 -3 3 -5 0 -5 -7z"/>
<path d="M3620 5544 c0 -8 5 -12 10 -9 6 4 8 11 5 16 -9 14 -15 11 -15 -7z"/>
<path d="M1660 4131 c0 -5 7 -12 16 -15 24 -9 27 -7 10 9 -17 17 -26 19 -26 6z"/>
<path d="M6240 4070 c0 -5 5 -10 10 -10 6 0 10 5 10 10 0 6 -4 10 -10 10 -5 0
-10 -4 -10 -10z"/>
<path d="M2147 3663 c-9 -2 -15 -9 -12 -14 9 -14 22 -11 29 6 3 8 4 14 3 14
-1 -1 -10 -3 -20 -6z"/>
<path d="M4675 3290 c3 -5 11 -10 16 -10 6 0 7 5 4 10 -3 6 -11 10 -16 10 -6
0 -7 -4 -4 -10z"/>
<path d="M3402 1557 c-6 -7 -13 -35 -17 -62 -7 -60 18 -120 50 -120 17 0 20 8
23 57 5 100 -24 164 -56 125z"/>
<path d="M4079 1549 c-12 -23 -5 -157 9 -171 26 -26 60 96 44 157 -10 37 -37
44 -53 14z"/>
</g>
</svg>
